<?xml version="1.0" encoding="utf-8"?>
<!-- Generator: Adobe Illustrator 27.0.0, SVG Export Plug-In . SVG Version: 6.00 Build 0)  -->
<svg version="1.1" id="Layer_1" xmlns="http://www.w3.org/2000/svg" xmlns:xlink="http://www.w3.org/1999/xlink" x="0px" y="0px"
	 viewBox="0 0 708.3 198.1" style="enable-background:new 0 0 708.3 198.1;" xml:space="preserve">
<style type="text/css">
	.st0{fill:#0A0A0A;}
</style>
<g>
	<g>
		<g>
			<path class="st0" d="M133.5,8.5L4.5,60v75.5l126.5,54.2c18.5,7.9,39.3,8.2,57.9,0.7l134.9-54V66L191.4,9.1
				C172.9,1.3,152,1,133.5,8.5z M125.9,59c3.3-8.1,11.2-13.8,20.5-13.8c3.2,0,6.3,0.7,9.1,2c7.7,3.5,13,11.2,13,20
				c0,12.2-9.9,22-22,22c-12.2,0-22-9.9-22-22C124.3,64.3,124.8,61.5,125.9,59z M277.7,107.5l-88.1,35.2
				c-18.7,7.5-39.5,7.2-57.9-0.7l-31.9-13.7l-49.1-20.9V89l56.5-22.5c-0.6,3.3-0.9,6.6-0.9,10.1c0,31.9,25.8,57.7,57.7,57.7
				s57.7-25.8,57.7-57.7c0-2.2-0.1-4.4-0.4-6.6l56.4,24.2v13.4h0.1V107.5z"/>
		</g>
		<g>
			<path class="st0" d="M702.4,69.5c-2.7,2.6-6,3.9-9.7,3.9c-3.9,0-7.3-1.3-10-4s-4-6-4-10c0-4.1,1.4-7.4,4.4-10.2
				c2.7-2.5,6-3.9,9.7-3.9c3.9,0,7.1,1.4,9.9,4.1s4.1,6,4.1,9.9C706.6,63.4,705.3,66.8,702.4,69.5z M684.4,51.4
				c-2.2,2.3-3.3,5-3.3,8.1c0,3.2,1.1,6,3.4,8.3c2.2,2.3,4.9,3.4,8.1,3.4s6-1.1,8.1-3.4c2.2-2.3,3.4-5,3.4-8.3
				c0-3.1-1.1-5.8-3.3-8.1c-2.3-2.3-5-3.5-8.1-3.5C689.4,47.8,686.7,49,684.4,51.4z M686.5,67.3V51.7c1,0,2.4,0,4.4,0
				c1.9,0,3.1,0,3.2,0c1.2,0.1,2.2,0.4,3.1,0.8c1.4,0.8,2.1,2,2.1,3.7c0,1.3-0.4,2.2-1.1,2.8c-0.7,0.6-1.6,0.9-2.7,1
				c1,0.2,1.7,0.5,2.2,0.9c0.9,0.7,1.4,1.9,1.4,3.5v1.4c0,0.2,0,0.3,0,0.5c0,0.2,0.1,0.3,0.1,0.5l0.1,0.4h-3.9
				c-0.1-0.5-0.2-1.2-0.3-2.1c0-0.9-0.1-1.6-0.3-1.9c-0.2-0.5-0.6-0.9-1.1-1.1c-0.3-0.1-0.8-0.2-1.4-0.2l-0.9-0.1h-0.9v5.5
				L686.5,67.3L686.5,67.3L686.5,67.3z M693.9,54.8c-0.6-0.2-1.3-0.3-2.3-0.3h-1V59h1.6c0.9,0,1.7-0.2,2.2-0.6
				c0.5-0.4,0.8-1,0.8-1.8C695.1,55.7,694.7,55.1,693.9,54.8z"/>
		</g>
		<g>
			<path class="st0" d="M386.9,81.8c0.4,2.5,1.1,4.4,2.1,5.7c1.9,2.3,5.2,3.4,9.9,3.4c2.8,0,5.1-0.3,6.8-0.9c3.3-1.2,5-3.3,5-6.5
				c0-1.8-0.8-3.3-2.4-4.3c-1.6-1-4.2-1.9-7.7-2.6l-6-1.3c-5.9-1.3-10-2.7-12.2-4.3c-3.8-2.6-5.6-6.6-5.6-12.1c0-5,1.8-9.1,5.5-12.4
				c3.7-3.3,9.1-4.9,16.2-4.9c5.9,0,11,1.6,15.2,4.7c4.2,3.1,6.4,7.6,6.6,13.5H409c-0.2-3.3-1.7-5.7-4.5-7.1
				c-1.9-0.9-4.2-1.4-6.9-1.4c-3.1,0-5.5,0.6-7.4,1.8c-1.8,1.2-2.7,2.9-2.7,5.1c0,2,0.9,3.5,2.7,4.5c1.2,0.7,3.6,1.4,7.4,2.3
				l9.8,2.3c4.3,1,7.5,2.4,9.6,4c3.3,2.6,5,6.4,5,11.4c0,5.1-2,9.3-5.9,12.7c-3.9,3.4-9.5,5-16.7,5c-7.3,0-13.1-1.7-17.3-5
				c-4.2-3.3-6.3-7.9-6.3-13.7H386.9z"/>
			<path class="st0" d="M470.6,43.3v9.9h-16.7v45.8h-11.7V53.1h-16.7v-9.9H470.6z"/>
			<path class="st0" d="M477.4,43.3h11.8v34.2c0,3.8,0.5,6.6,1.4,8.4c1.4,3.1,4.5,4.7,9.2,4.7c4.7,0,7.7-1.6,9.1-4.7
				c0.9-1.8,1.4-4.6,1.4-8.4V43.3h11.8v34.2c0,5.9-0.9,10.5-2.8,13.8c-3.4,6-9.9,9.1-19.6,9.1c-9.6,0-16.2-3-19.6-9.1
				c-1.8-3.3-2.8-7.9-2.8-13.8V43.3z"/>
			<path class="st0" d="M565.9,44.5c3.9,1.3,7.1,3.6,9.5,7.1c1.9,2.8,3.3,5.8,4,9s1.1,6.3,1.1,9.2c0,7.4-1.5,13.7-4.5,18.8
				c-4,6.9-10.3,10.4-18.7,10.4h-24V43.3h24C560.7,43.3,563.6,43.7,565.9,44.5z M544.6,52.9v36.3h10.7c5.5,0,9.3-2.7,11.5-8.1
				c1.2-3,1.8-6.5,1.8-10.6c0-5.7-0.9-10-2.7-13.1c-1.8-3-5.3-4.6-10.6-4.6H544.6z"/>
			<path class="st0" d="M599.8,98.9h-11.6V43.3h11.6V98.9z"/>
			<path class="st0" d="M653.5,94c-4.2,4.3-10.3,6.5-18.2,6.5s-14-2.2-18.2-6.5c-5.6-5.3-8.5-13-8.5-23c0-10.2,2.8-17.9,8.5-23
				c4.2-4.3,10.3-6.5,18.2-6.5s14,2.2,18.2,6.5c5.6,5.1,8.4,12.8,8.4,23C661.9,81,659.1,88.7,653.5,94z M646.2,85.5
				c2.7-3.4,4.1-8.2,4.1-14.5c0-6.2-1.4-11.1-4.1-14.5c-2.7-3.4-6.4-5.1-11-5.1c-4.6,0-8.3,1.7-11,5.1c-2.7,3.4-4.1,8.2-4.1,14.5
				s1.4,11.1,4.1,14.5c2.7,3.4,6.4,5.1,11,5.1C639.9,90.6,643.5,88.9,646.2,85.5z"/>
		</g>
		<g>
			<path class="st0" d="M420.4,121.7h-29.5v11.8h27v9.7h-27v14.3h30.8v10h-42.2v-55.7h40.8V121.7z"/>
			<path class="st0" d="M462.5,111.9h13.2l-18.6,34.8v20.9h-11.6v-20.9l-19.3-34.8h13.7l11.6,24.3L462.5,111.9z"/>
			<path class="st0" d="M482.2,111.9h12.2l22.1,38.8v-38.8h10.8v55.7h-11.6L493,128v39.5h-10.8V111.9z"/>
		</g>
	</g>
</g>
</svg>
