<?xml version="1.0" encoding="utf-8"?>
<!-- Generator: Adobe Illustrator 27.0.0, SVG Export Plug-In . SVG Version: 6.00 Build 0)  -->
<svg version="1.1" id="Layer_1" xmlns="http://www.w3.org/2000/svg" xmlns:xlink="http://www.w3.org/1999/xlink" x="0px" y="0px"
	 viewBox="0 0 708.3 228.1" style="enable-background:new 0 0 708.3 228.1;" xml:space="preserve">
<style type="text/css">
	.st0{fill:#0A0A0A;}
</style>
<g>
	<g>
		<path class="st0" d="M386.5,96.5c0.4,2.5,1.1,4.4,2.1,5.7c1.9,2.3,5.2,3.4,9.9,3.4c2.8,0,5.1-0.3,6.8-0.9c3.3-1.2,5-3.3,5-6.4
			c0-1.8-0.8-3.3-2.4-4.3c-1.6-1-4.2-1.8-7.7-2.6l-6-1.3c-5.9-1.3-10-2.7-12.2-4.3c-3.7-2.6-5.6-6.6-5.6-12c0-5,1.8-9.1,5.5-12.4
			c3.7-3.3,9-4.9,16.1-4.9c5.9,0,11,1.5,15.1,4.6s6.4,7.6,6.6,13.5h-11.1c-0.2-3.3-1.7-5.7-4.5-7.1c-1.9-0.9-4.2-1.4-6.9-1.4
			c-3.1,0-5.5,0.6-7.3,1.8c-1.8,1.2-2.7,2.9-2.7,5c0,2,0.9,3.5,2.7,4.4c1.2,0.7,3.6,1.4,7.4,2.3l9.7,2.3c4.3,1,7.5,2.3,9.6,4
			c3.3,2.6,5,6.4,5,11.3c0,5.1-2,9.3-5.9,12.6c-3.9,3.4-9.5,5-16.6,5c-7.3,0-13.1-1.6-17.2-5c-4.2-3.3-6.3-7.8-6.3-13.6H386.5z"/>
		<path class="st0" d="M469.9,58.1V68h-16.6v45.7h-11.7V68h-16.7v-9.8H469.9z"/>
		<path class="st0" d="M476.6,58.1h11.8v34.1c0,3.8,0.5,6.6,1.4,8.4c1.4,3.1,4.5,4.7,9.2,4.7c4.7,0,7.7-1.6,9.1-4.7
			c0.9-1.8,1.4-4.5,1.4-8.4V58.1h11.8v34.1c0,5.9-0.9,10.5-2.7,13.8c-3.4,6-9.9,9-19.5,9c-9.6,0-16.1-3-19.5-9
			c-1.8-3.3-2.7-7.9-2.7-13.8V58.1z"/>
		<path class="st0" d="M564.8,59.3c3.9,1.3,7,3.6,9.5,7c1.9,2.8,3.3,5.7,4,9c0.7,3.2,1.1,6.3,1.1,9.2c0,7.4-1.5,13.6-4.4,18.7
			c-4,6.9-10.2,10.4-18.6,10.4h-23.9V58.1h23.9C559.7,58.2,562.5,58.6,564.8,59.3z M543.6,67.8V104h10.7c5.5,0,9.3-2.7,11.5-8.1
			c1.2-3,1.8-6.5,1.8-10.6c0-5.6-0.9-10-2.7-13c-1.8-3-5.3-4.5-10.6-4.5H543.6z"/>
		<path class="st0" d="M598.6,113.6h-11.5V58.1h11.5V113.6z"/>
		<path class="st0" d="M652.1,108.7c-4.2,4.3-10.3,6.5-18.2,6.5c-7.9,0-14-2.2-18.2-6.5c-5.6-5.3-8.4-12.9-8.4-22.9
			c0-10.2,2.8-17.8,8.4-22.9c4.2-4.3,10.3-6.5,18.2-6.5c7.9,0,14,2.2,18.2,6.5c5.6,5.1,8.4,12.7,8.4,22.9
			C660.5,95.8,657.7,103.4,652.1,108.7z M644.9,100.3c2.7-3.4,4-8.2,4-14.5c0-6.2-1.3-11-4-14.4c-2.7-3.4-6.3-5.1-10.9-5.1
			c-4.6,0-8.3,1.7-11,5.1c-2.7,3.4-4.1,8.2-4.1,14.5c0,6.2,1.4,11.1,4.1,14.5c2.7,3.4,6.4,5.1,11,5.1
			C638.6,105.3,642.2,103.6,644.9,100.3z"/>
		<path class="st0" d="M419.1,136.9h-29.4v11.8h27v9.6h-27v14.3h30.7v10h-42.1v-55.5h40.7V136.9z"/>
		<path class="st0" d="M461.2,127.1h13.1l-18.6,34.7v20.8h-11.6v-20.8L425,127.1h13.7l11.5,24.2L461.2,127.1z"/>
		<path class="st0" d="M480.8,127.1h12.2l22,38.7v-38.7h10.8v55.5h-11.6l-22.6-39.4v39.4h-10.8V127.1z"/>
	</g>
	<g>
		<path class="st0" d="M132.1,22.9L2.9,74.5v75.7l126.7,54.3c18.5,7.9,39.4,8.2,58,0.7l135.1-54.1V80.5L190.1,23.6
			C171.6,15.7,150.7,15.4,132.1,22.9z M124.5,73.5c3.3-8.1,11.2-13.8,20.5-13.8c3.2,0,6.3,0.7,9.1,2c7.7,3.5,13,11.2,13,20.1
			c0,12.2-9.9,22.1-22.1,22.1c-12.2,0-22.1-9.9-22.1-22.1C122.9,78.8,123.4,76,124.5,73.5z M276.6,122.1l-88.3,35.3
			c-18.7,7.5-39.5,7.2-58-0.7l-32-13.7L49.1,122v-18.4L105.7,81c-0.6,3.3-0.9,6.6-0.9,10.1c0,31.9,25.9,57.8,57.8,57.8
			c31.9,0,57.8-25.9,57.8-57.8c0-2.2-0.1-4.4-0.4-6.6l56.5,24.2V122.1z"/>
	</g>
	<g>
		<path class="st0" d="M701.2,83.9c-2.7,2.6-6,3.9-9.7,3.9c-3.9,0-7.2-1.3-9.9-4c-2.7-2.7-4-6-4-9.9c0-4.1,1.4-7.4,4.3-10.1
			c2.7-2.5,5.9-3.8,9.6-3.8c3.8,0,7.1,1.4,9.8,4.1c2.7,2.7,4.1,6,4.1,9.8C705.3,77.9,704,81.2,701.2,83.9z M683.3,65.9
			c-2.2,2.3-3.3,5-3.3,8.1c0,3.2,1.1,6,3.4,8.2c2.2,2.3,4.9,3.4,8.1,3.4c3.2,0,5.9-1.1,8.1-3.4c2.2-2.3,3.4-5,3.4-8.2
			c0-3.1-1.1-5.8-3.3-8.1c-2.3-2.3-5-3.5-8.1-3.5C688.2,62.4,685.5,63.5,683.3,65.9z M685.3,81.7V66.2c1,0,2.4,0,4.3,0
			c1.9,0,3,0,3.2,0c1.2,0.1,2.2,0.4,3,0.8c1.4,0.8,2.1,2,2.1,3.7c0,1.3-0.4,2.2-1.1,2.8c-0.7,0.6-1.6,0.9-2.7,1
			c1,0.2,1.7,0.5,2.2,0.9c0.9,0.7,1.4,1.9,1.4,3.5v1.4c0,0.2,0,0.3,0,0.5c0,0.2,0.1,0.3,0.1,0.5l0.1,0.4h-3.9
			c-0.1-0.5-0.2-1.2-0.3-2.1c0-0.9-0.1-1.6-0.3-1.9c-0.2-0.5-0.6-0.9-1.1-1.1c-0.3-0.1-0.8-0.2-1.4-0.2l-0.9-0.1h-0.9v5.5H685.3z
			 M692.7,69.3c-0.6-0.2-1.3-0.3-2.3-0.3h-1v4.5h1.6c0.9,0,1.7-0.2,2.2-0.6c0.5-0.4,0.8-1,0.8-1.8C693.9,70.2,693.5,69.6,692.7,69.3
			z"/>
	</g>
</g>
</svg>
